<mxfile host="Electron" agent="Mozilla/5.0 (Windows NT 10.0; Win64; x64) AppleWebKit/537.36 (KHTML, like Gecko) draw.io/26.2.15 Chrome/134.0.6998.205 Electron/35.2.1 Safari/537.36" version="26.2.15">
  <diagram name="Seite-1" id="K4jL8faodpEw3jt65F8a">
    <mxGraphModel dx="2327" dy="1829" grid="1" gridSize="10" guides="1" tooltips="1" connect="1" arrows="1" fold="1" page="1" pageScale="1" pageWidth="827" pageHeight="1169" math="0" shadow="0">
      <root>
        <mxCell id="0" />
        <mxCell id="1" parent="0" />
        <mxCell id="uBcwT2f-iA0aWQTqLeyf-30" style="edgeStyle=orthogonalEdgeStyle;shape=connector;rounded=0;orthogonalLoop=1;jettySize=auto;html=1;entryX=0.5;entryY=0;entryDx=0;entryDy=0;align=center;verticalAlign=middle;fontFamily=Helvetica;fontSize=11;fontColor=default;labelBackgroundColor=none;startFill=0;endArrow=none;" parent="1" source="uBcwT2f-iA0aWQTqLeyf-36" target="uBcwT2f-iA0aWQTqLeyf-3" edge="1">
          <mxGeometry relative="1" as="geometry" />
        </mxCell>
        <mxCell id="uBcwT2f-iA0aWQTqLeyf-1" value="Passenger" style="whiteSpace=wrap;html=1;align=center;labelBackgroundColor=none;" parent="1" vertex="1">
          <mxGeometry x="750" y="-280" width="100" height="40" as="geometry" />
        </mxCell>
        <mxCell id="uBcwT2f-iA0aWQTqLeyf-59" style="edgeStyle=orthogonalEdgeStyle;shape=connector;rounded=0;orthogonalLoop=1;jettySize=auto;html=1;entryX=0;entryY=0.5;entryDx=0;entryDy=0;align=center;verticalAlign=middle;fontFamily=Helvetica;fontSize=11;fontColor=default;labelBackgroundColor=none;startFill=0;endArrow=none;" parent="1" source="uBcwT2f-iA0aWQTqLeyf-3" target="uBcwT2f-iA0aWQTqLeyf-92" edge="1">
          <mxGeometry relative="1" as="geometry">
            <mxPoint x="1160" y="10" as="targetPoint" />
          </mxGeometry>
        </mxCell>
        <mxCell id="uBcwT2f-iA0aWQTqLeyf-61" style="edgeStyle=orthogonalEdgeStyle;shape=connector;rounded=0;orthogonalLoop=1;jettySize=auto;html=1;entryX=0;entryY=0.5;entryDx=0;entryDy=0;align=center;verticalAlign=middle;fontFamily=Helvetica;fontSize=11;fontColor=default;labelBackgroundColor=none;startFill=0;endArrow=none;" parent="1" source="uBcwT2f-iA0aWQTqLeyf-3" target="uBcwT2f-iA0aWQTqLeyf-93" edge="1">
          <mxGeometry relative="1" as="geometry">
            <mxPoint x="1160" y="50" as="targetPoint" />
          </mxGeometry>
        </mxCell>
        <mxCell id="uBcwT2f-iA0aWQTqLeyf-3" value="Flight" style="whiteSpace=wrap;html=1;align=center;labelBackgroundColor=none;" parent="1" vertex="1">
          <mxGeometry x="750" y="60" width="100" height="40" as="geometry" />
        </mxCell>
        <mxCell id="uBcwT2f-iA0aWQTqLeyf-23" style="edgeStyle=orthogonalEdgeStyle;shape=connector;rounded=0;orthogonalLoop=1;jettySize=auto;html=1;exitX=0;exitY=0;exitDx=0;exitDy=0;entryX=1;entryY=1;entryDx=0;entryDy=0;align=center;verticalAlign=middle;fontFamily=Helvetica;fontSize=11;fontColor=default;labelBackgroundColor=none;startFill=0;endArrow=none;" parent="1" source="uBcwT2f-iA0aWQTqLeyf-4" target="uBcwT2f-iA0aWQTqLeyf-21" edge="1">
          <mxGeometry relative="1" as="geometry" />
        </mxCell>
        <mxCell id="uBcwT2f-iA0aWQTqLeyf-24" style="edgeStyle=orthogonalEdgeStyle;shape=connector;rounded=0;orthogonalLoop=1;jettySize=auto;html=1;exitX=1;exitY=0;exitDx=0;exitDy=0;entryX=0;entryY=1;entryDx=0;entryDy=0;align=center;verticalAlign=middle;fontFamily=Helvetica;fontSize=11;fontColor=default;labelBackgroundColor=none;startFill=0;endArrow=none;" parent="1" source="uBcwT2f-iA0aWQTqLeyf-4" target="uBcwT2f-iA0aWQTqLeyf-22" edge="1">
          <mxGeometry relative="1" as="geometry" />
        </mxCell>
        <mxCell id="uBcwT2f-iA0aWQTqLeyf-107" style="edgeStyle=orthogonalEdgeStyle;shape=connector;rounded=0;orthogonalLoop=1;jettySize=auto;html=1;entryX=0;entryY=0.5;entryDx=0;entryDy=0;align=center;verticalAlign=middle;fontFamily=Helvetica;fontSize=11;fontColor=default;labelBackgroundColor=none;startFill=0;endArrow=none;" parent="1" source="uBcwT2f-iA0aWQTqLeyf-4" target="uBcwT2f-iA0aWQTqLeyf-102" edge="1">
          <mxGeometry relative="1" as="geometry" />
        </mxCell>
        <mxCell id="uBcwT2f-iA0aWQTqLeyf-108" style="edgeStyle=orthogonalEdgeStyle;shape=connector;rounded=0;orthogonalLoop=1;jettySize=auto;html=1;entryX=0;entryY=0.5;entryDx=0;entryDy=0;align=center;verticalAlign=middle;fontFamily=Helvetica;fontSize=11;fontColor=default;labelBackgroundColor=none;startFill=0;endArrow=none;" parent="1" source="uBcwT2f-iA0aWQTqLeyf-4" target="uBcwT2f-iA0aWQTqLeyf-101" edge="1">
          <mxGeometry relative="1" as="geometry" />
        </mxCell>
        <mxCell id="uBcwT2f-iA0aWQTqLeyf-4" value="Airport" style="whiteSpace=wrap;html=1;align=center;labelBackgroundColor=none;" parent="1" vertex="1">
          <mxGeometry x="760" y="280" width="100" height="40" as="geometry" />
        </mxCell>
        <mxCell id="uBcwT2f-iA0aWQTqLeyf-11" style="edgeStyle=orthogonalEdgeStyle;rounded=0;orthogonalLoop=1;jettySize=auto;html=1;entryX=0;entryY=0.5;entryDx=0;entryDy=0;fontColor=default;endArrow=none;startFill=0;labelBackgroundColor=none;" parent="1" source="uBcwT2f-iA0aWQTqLeyf-5" target="uBcwT2f-iA0aWQTqLeyf-9" edge="1">
          <mxGeometry relative="1" as="geometry" />
        </mxCell>
        <mxCell id="uBcwT2f-iA0aWQTqLeyf-5" value="Airlines" style="whiteSpace=wrap;html=1;align=center;labelBackgroundColor=none;" parent="1" vertex="1">
          <mxGeometry x="-70" y="60" width="100" height="40" as="geometry" />
        </mxCell>
        <mxCell id="uBcwT2f-iA0aWQTqLeyf-13" style="edgeStyle=orthogonalEdgeStyle;shape=connector;rounded=0;orthogonalLoop=1;jettySize=auto;html=1;exitX=0.5;exitY=1;exitDx=0;exitDy=0;entryX=0.5;entryY=0;entryDx=0;entryDy=0;align=center;verticalAlign=middle;fontFamily=Helvetica;fontSize=11;fontColor=default;labelBackgroundColor=none;startFill=0;endArrow=none;" parent="1" source="uBcwT2f-iA0aWQTqLeyf-6" target="uBcwT2f-iA0aWQTqLeyf-10" edge="1">
          <mxGeometry relative="1" as="geometry" />
        </mxCell>
        <mxCell id="uBcwT2f-iA0aWQTqLeyf-27" style="edgeStyle=orthogonalEdgeStyle;shape=connector;rounded=0;orthogonalLoop=1;jettySize=auto;html=1;entryX=0;entryY=0.5;entryDx=0;entryDy=0;align=center;verticalAlign=middle;fontFamily=Helvetica;fontSize=11;fontColor=default;labelBackgroundColor=none;startFill=0;endArrow=none;" parent="1" source="uBcwT2f-iA0aWQTqLeyf-28" target="uBcwT2f-iA0aWQTqLeyf-3" edge="1">
          <mxGeometry relative="1" as="geometry" />
        </mxCell>
        <mxCell id="uBcwT2f-iA0aWQTqLeyf-6" value="Aircraft" style="whiteSpace=wrap;html=1;align=center;labelBackgroundColor=none;" parent="1" vertex="1">
          <mxGeometry x="340" y="60" width="100" height="40" as="geometry" />
        </mxCell>
        <mxCell id="uBcwT2f-iA0aWQTqLeyf-7" value="Aircrafttype" style="whiteSpace=wrap;html=1;align=center;labelBackgroundColor=none;" parent="1" vertex="1">
          <mxGeometry x="340" y="250" width="100" height="40" as="geometry" />
        </mxCell>
        <mxCell id="uBcwT2f-iA0aWQTqLeyf-19" style="edgeStyle=orthogonalEdgeStyle;shape=connector;rounded=0;orthogonalLoop=1;jettySize=auto;html=1;exitX=1;exitY=0;exitDx=0;exitDy=0;entryX=0.5;entryY=1;entryDx=0;entryDy=0;align=center;verticalAlign=middle;fontFamily=Helvetica;fontSize=11;fontColor=default;labelBackgroundColor=none;startFill=0;endArrow=none;" parent="1" source="uBcwT2f-iA0aWQTqLeyf-8" target="uBcwT2f-iA0aWQTqLeyf-16" edge="1">
          <mxGeometry relative="1" as="geometry" />
        </mxCell>
        <mxCell id="uBcwT2f-iA0aWQTqLeyf-8" value="Distance" style="whiteSpace=wrap;html=1;align=center;labelBackgroundColor=none;" parent="1" vertex="1">
          <mxGeometry x="760" y="570" width="100" height="40" as="geometry" />
        </mxCell>
        <mxCell id="uBcwT2f-iA0aWQTqLeyf-12" style="edgeStyle=orthogonalEdgeStyle;shape=connector;rounded=0;orthogonalLoop=1;jettySize=auto;html=1;entryX=0;entryY=0.5;entryDx=0;entryDy=0;align=center;verticalAlign=middle;fontFamily=Helvetica;fontSize=11;fontColor=default;labelBackgroundColor=none;startFill=0;endArrow=none;" parent="1" source="uBcwT2f-iA0aWQTqLeyf-9" target="uBcwT2f-iA0aWQTqLeyf-6" edge="1">
          <mxGeometry relative="1" as="geometry" />
        </mxCell>
        <mxCell id="uBcwT2f-iA0aWQTqLeyf-9" value="own" style="shape=rhombus;perimeter=rhombusPerimeter;whiteSpace=wrap;html=1;align=center;labelBackgroundColor=none;" parent="1" vertex="1">
          <mxGeometry x="120" y="50" width="120" height="60" as="geometry" />
        </mxCell>
        <mxCell id="uBcwT2f-iA0aWQTqLeyf-14" style="edgeStyle=orthogonalEdgeStyle;shape=connector;rounded=0;orthogonalLoop=1;jettySize=auto;html=1;entryX=0.5;entryY=0;entryDx=0;entryDy=0;align=center;verticalAlign=middle;fontFamily=Helvetica;fontSize=11;fontColor=default;labelBackgroundColor=none;startFill=0;endArrow=none;" parent="1" source="uBcwT2f-iA0aWQTqLeyf-10" target="uBcwT2f-iA0aWQTqLeyf-7" edge="1">
          <mxGeometry relative="1" as="geometry" />
        </mxCell>
        <mxCell id="uBcwT2f-iA0aWQTqLeyf-10" value="belongTo" style="shape=rhombus;perimeter=rhombusPerimeter;whiteSpace=wrap;html=1;align=center;labelBackgroundColor=none;" parent="1" vertex="1">
          <mxGeometry x="330" y="140" width="120" height="60" as="geometry" />
        </mxCell>
        <mxCell id="uBcwT2f-iA0aWQTqLeyf-18" style="edgeStyle=orthogonalEdgeStyle;shape=connector;rounded=0;orthogonalLoop=1;jettySize=auto;html=1;entryX=0;entryY=0;entryDx=0;entryDy=0;align=center;verticalAlign=middle;fontFamily=Helvetica;fontSize=11;fontColor=default;labelBackgroundColor=none;startFill=0;endArrow=none;" parent="1" source="uBcwT2f-iA0aWQTqLeyf-15" target="uBcwT2f-iA0aWQTqLeyf-8" edge="1">
          <mxGeometry relative="1" as="geometry" />
        </mxCell>
        <mxCell id="uBcwT2f-iA0aWQTqLeyf-15" value="from" style="shape=rhombus;perimeter=rhombusPerimeter;whiteSpace=wrap;html=1;align=center;labelBackgroundColor=none;" parent="1" vertex="1">
          <mxGeometry x="680" y="410" width="120" height="60" as="geometry" />
        </mxCell>
        <mxCell id="uBcwT2f-iA0aWQTqLeyf-20" style="edgeStyle=orthogonalEdgeStyle;shape=connector;rounded=0;orthogonalLoop=1;jettySize=auto;html=1;entryX=1;entryY=1;entryDx=0;entryDy=0;align=center;verticalAlign=middle;fontFamily=Helvetica;fontSize=11;fontColor=default;labelBackgroundColor=none;startFill=0;endArrow=none;" parent="1" source="uBcwT2f-iA0aWQTqLeyf-16" target="uBcwT2f-iA0aWQTqLeyf-4" edge="1">
          <mxGeometry relative="1" as="geometry" />
        </mxCell>
        <mxCell id="uBcwT2f-iA0aWQTqLeyf-16" value="to" style="shape=rhombus;perimeter=rhombusPerimeter;whiteSpace=wrap;html=1;align=center;labelBackgroundColor=none;" parent="1" vertex="1">
          <mxGeometry x="820" y="410" width="120" height="60" as="geometry" />
        </mxCell>
        <mxCell id="uBcwT2f-iA0aWQTqLeyf-17" style="edgeStyle=orthogonalEdgeStyle;shape=connector;rounded=0;orthogonalLoop=1;jettySize=auto;html=1;exitX=0;exitY=1;exitDx=0;exitDy=0;entryX=0.5;entryY=0;entryDx=0;entryDy=0;align=center;verticalAlign=middle;fontFamily=Helvetica;fontSize=11;fontColor=default;labelBackgroundColor=none;startFill=0;endArrow=none;" parent="1" source="uBcwT2f-iA0aWQTqLeyf-4" target="uBcwT2f-iA0aWQTqLeyf-15" edge="1">
          <mxGeometry relative="1" as="geometry" />
        </mxCell>
        <mxCell id="wFdlNhTh8NdAsI9w1Szw-38" style="edgeStyle=orthogonalEdgeStyle;shape=connector;rounded=0;orthogonalLoop=1;jettySize=auto;html=1;entryX=0;entryY=0.75;entryDx=0;entryDy=0;strokeColor=default;align=center;verticalAlign=middle;fontFamily=Helvetica;fontSize=11;fontColor=default;labelBackgroundColor=none;startFill=0;endArrow=none;exitX=0.5;exitY=0;exitDx=0;exitDy=0;" edge="1" parent="1" source="uBcwT2f-iA0aWQTqLeyf-21" target="uBcwT2f-iA0aWQTqLeyf-3">
          <mxGeometry relative="1" as="geometry">
            <Array as="points">
              <mxPoint x="710" y="178" />
              <mxPoint x="710" y="90" />
            </Array>
          </mxGeometry>
        </mxCell>
        <mxCell id="uBcwT2f-iA0aWQTqLeyf-21" value="departes" style="shape=rhombus;perimeter=rhombusPerimeter;whiteSpace=wrap;html=1;align=center;labelBackgroundColor=none;" parent="1" vertex="1">
          <mxGeometry x="615" y="178" width="120" height="60" as="geometry" />
        </mxCell>
        <mxCell id="uBcwT2f-iA0aWQTqLeyf-26" style="edgeStyle=orthogonalEdgeStyle;shape=connector;rounded=0;orthogonalLoop=1;jettySize=auto;html=1;exitX=0;exitY=0;exitDx=0;exitDy=0;entryX=1;entryY=1;entryDx=0;entryDy=0;align=center;verticalAlign=middle;fontFamily=Helvetica;fontSize=11;fontColor=default;labelBackgroundColor=none;startFill=0;endArrow=none;" parent="1" source="uBcwT2f-iA0aWQTqLeyf-22" target="uBcwT2f-iA0aWQTqLeyf-3" edge="1">
          <mxGeometry relative="1" as="geometry" />
        </mxCell>
        <mxCell id="uBcwT2f-iA0aWQTqLeyf-22" value="arrives" style="shape=rhombus;perimeter=rhombusPerimeter;whiteSpace=wrap;html=1;align=center;labelBackgroundColor=none;" parent="1" vertex="1">
          <mxGeometry x="855" y="150" width="120" height="60" as="geometry" />
        </mxCell>
        <mxCell id="uBcwT2f-iA0aWQTqLeyf-29" value="" style="edgeStyle=orthogonalEdgeStyle;shape=connector;rounded=0;orthogonalLoop=1;jettySize=auto;html=1;entryX=0;entryY=0.5;entryDx=0;entryDy=0;align=center;verticalAlign=middle;fontFamily=Helvetica;fontSize=11;fontColor=default;labelBackgroundColor=none;startFill=0;endArrow=none;" parent="1" source="uBcwT2f-iA0aWQTqLeyf-6" target="uBcwT2f-iA0aWQTqLeyf-28" edge="1">
          <mxGeometry relative="1" as="geometry">
            <mxPoint x="440" y="80" as="sourcePoint" />
            <mxPoint x="750" y="80" as="targetPoint" />
          </mxGeometry>
        </mxCell>
        <mxCell id="uBcwT2f-iA0aWQTqLeyf-28" value="dessignatedto" style="shape=rhombus;perimeter=rhombusPerimeter;whiteSpace=wrap;html=1;align=center;labelBackgroundColor=none;" parent="1" vertex="1">
          <mxGeometry x="520" y="50" width="120" height="60" as="geometry" />
        </mxCell>
        <mxCell id="uBcwT2f-iA0aWQTqLeyf-33" value="" style="edgeStyle=orthogonalEdgeStyle;shape=connector;rounded=0;orthogonalLoop=1;jettySize=auto;html=1;entryX=0.5;entryY=0;entryDx=0;entryDy=0;align=center;verticalAlign=middle;fontFamily=Helvetica;fontSize=11;fontColor=default;labelBackgroundColor=none;startFill=0;endArrow=none;" parent="1" source="uBcwT2f-iA0aWQTqLeyf-1" target="uBcwT2f-iA0aWQTqLeyf-32" edge="1">
          <mxGeometry relative="1" as="geometry">
            <mxPoint x="800" y="-190" as="sourcePoint" />
            <mxPoint x="800" y="-20" as="targetPoint" />
          </mxGeometry>
        </mxCell>
        <mxCell id="uBcwT2f-iA0aWQTqLeyf-32" value="books" style="shape=rhombus;perimeter=rhombusPerimeter;whiteSpace=wrap;html=1;align=center;labelBackgroundColor=none;" parent="1" vertex="1">
          <mxGeometry x="740" y="-210" width="120" height="60" as="geometry" />
        </mxCell>
        <mxCell id="uBcwT2f-iA0aWQTqLeyf-35" value="" style="edgeStyle=orthogonalEdgeStyle;shape=connector;rounded=0;orthogonalLoop=1;jettySize=auto;html=1;entryX=0.5;entryY=0;entryDx=0;entryDy=0;align=center;verticalAlign=middle;fontFamily=Helvetica;fontSize=11;fontColor=default;labelBackgroundColor=none;startFill=0;endArrow=none;" parent="1" source="uBcwT2f-iA0aWQTqLeyf-32" target="uBcwT2f-iA0aWQTqLeyf-34" edge="1">
          <mxGeometry relative="1" as="geometry">
            <mxPoint x="800" y="-70" as="sourcePoint" />
            <mxPoint x="800" y="60" as="targetPoint" />
          </mxGeometry>
        </mxCell>
        <mxCell id="uBcwT2f-iA0aWQTqLeyf-34" value="Ticket" style="whiteSpace=wrap;html=1;align=center;labelBackgroundColor=none;" parent="1" vertex="1">
          <mxGeometry x="750" y="-120" width="100" height="40" as="geometry" />
        </mxCell>
        <mxCell id="uBcwT2f-iA0aWQTqLeyf-37" value="" style="edgeStyle=orthogonalEdgeStyle;shape=connector;rounded=0;orthogonalLoop=1;jettySize=auto;html=1;entryX=0.5;entryY=0;entryDx=0;entryDy=0;align=center;verticalAlign=middle;fontFamily=Helvetica;fontSize=11;fontColor=default;labelBackgroundColor=none;startFill=0;endArrow=none;" parent="1" source="uBcwT2f-iA0aWQTqLeyf-34" target="uBcwT2f-iA0aWQTqLeyf-36" edge="1">
          <mxGeometry relative="1" as="geometry">
            <mxPoint x="800" y="-80" as="sourcePoint" />
            <mxPoint x="800" y="60" as="targetPoint" />
          </mxGeometry>
        </mxCell>
        <mxCell id="uBcwT2f-iA0aWQTqLeyf-36" value="corresponds" style="shape=rhombus;perimeter=rhombusPerimeter;whiteSpace=wrap;html=1;align=center;labelBackgroundColor=none;" parent="1" vertex="1">
          <mxGeometry x="740" y="-50" width="120" height="60" as="geometry" />
        </mxCell>
        <mxCell id="uBcwT2f-iA0aWQTqLeyf-39" style="edgeStyle=orthogonalEdgeStyle;shape=connector;rounded=0;orthogonalLoop=1;jettySize=auto;html=1;entryX=0;entryY=0.25;entryDx=0;entryDy=0;align=center;verticalAlign=middle;fontFamily=Helvetica;fontSize=11;fontColor=default;labelBackgroundColor=none;startFill=0;endArrow=none;" parent="1" source="uBcwT2f-iA0aWQTqLeyf-41" target="uBcwT2f-iA0aWQTqLeyf-3" edge="1">
          <mxGeometry relative="1" as="geometry" />
        </mxCell>
        <mxCell id="uBcwT2f-iA0aWQTqLeyf-42" style="edgeStyle=orthogonalEdgeStyle;shape=connector;rounded=0;orthogonalLoop=1;jettySize=auto;html=1;exitX=1;exitY=0.5;exitDx=0;exitDy=0;entryX=0;entryY=0.5;entryDx=0;entryDy=0;align=center;verticalAlign=middle;fontFamily=Helvetica;fontSize=11;fontColor=default;labelBackgroundColor=none;startFill=0;endArrow=none;" parent="1" source="uBcwT2f-iA0aWQTqLeyf-43" target="uBcwT2f-iA0aWQTqLeyf-34" edge="1">
          <mxGeometry relative="1" as="geometry">
            <mxPoint x="510" y="-190" as="sourcePoint" />
            <mxPoint x="700" y="-310" as="targetPoint" />
          </mxGeometry>
        </mxCell>
        <mxCell id="uBcwT2f-iA0aWQTqLeyf-38" value="Boardingcard" style="whiteSpace=wrap;html=1;align=center;labelBackgroundColor=none;" parent="1" vertex="1">
          <mxGeometry x="412.5" y="-156" width="100" height="40" as="geometry" />
        </mxCell>
        <mxCell id="uBcwT2f-iA0aWQTqLeyf-40" value="" style="edgeStyle=orthogonalEdgeStyle;shape=connector;rounded=0;orthogonalLoop=1;jettySize=auto;html=1;entryX=0;entryY=0.5;entryDx=0;entryDy=0;align=center;verticalAlign=middle;fontFamily=Helvetica;fontSize=11;fontColor=default;labelBackgroundColor=none;startFill=0;endArrow=none;exitX=0.5;exitY=1;exitDx=0;exitDy=0;" parent="1" source="uBcwT2f-iA0aWQTqLeyf-38" target="uBcwT2f-iA0aWQTqLeyf-41" edge="1">
          <mxGeometry relative="1" as="geometry">
            <mxPoint x="512.5" y="-136" as="sourcePoint" />
            <mxPoint x="512.5" y="-86" as="targetPoint" />
          </mxGeometry>
        </mxCell>
        <mxCell id="uBcwT2f-iA0aWQTqLeyf-41" value="for" style="shape=rhombus;perimeter=rhombusPerimeter;whiteSpace=wrap;html=1;align=center;fontFamily=Helvetica;fontSize=11;labelBackgroundColor=none;" parent="1" vertex="1">
          <mxGeometry x="520" y="-70" width="120" height="60" as="geometry" />
        </mxCell>
        <mxCell id="uBcwT2f-iA0aWQTqLeyf-45" style="edgeStyle=orthogonalEdgeStyle;shape=connector;rounded=0;orthogonalLoop=1;jettySize=auto;html=1;entryX=1;entryY=0.5;entryDx=0;entryDy=0;align=center;verticalAlign=middle;fontFamily=Helvetica;fontSize=11;fontColor=default;labelBackgroundColor=none;startFill=0;endArrow=none;exitX=0;exitY=0.5;exitDx=0;exitDy=0;" parent="1" source="uBcwT2f-iA0aWQTqLeyf-81" target="uBcwT2f-iA0aWQTqLeyf-1" edge="1">
          <mxGeometry relative="1" as="geometry">
            <mxPoint x="1430" y="-370" as="sourcePoint" />
          </mxGeometry>
        </mxCell>
        <mxCell id="uBcwT2f-iA0aWQTqLeyf-47" style="edgeStyle=orthogonalEdgeStyle;shape=connector;rounded=0;orthogonalLoop=1;jettySize=auto;html=1;entryX=1;entryY=0.5;entryDx=0;entryDy=0;align=center;verticalAlign=middle;fontFamily=Helvetica;fontSize=11;fontColor=default;labelBackgroundColor=none;startFill=0;endArrow=none;" parent="1" source="uBcwT2f-iA0aWQTqLeyf-83" target="uBcwT2f-iA0aWQTqLeyf-1" edge="1">
          <mxGeometry relative="1" as="geometry" />
        </mxCell>
        <mxCell id="uBcwT2f-iA0aWQTqLeyf-49" style="edgeStyle=orthogonalEdgeStyle;shape=connector;rounded=0;orthogonalLoop=1;jettySize=auto;html=1;entryX=1;entryY=0.5;entryDx=0;entryDy=0;align=center;verticalAlign=middle;fontFamily=Helvetica;fontSize=11;fontColor=default;labelBackgroundColor=none;startFill=0;endArrow=none;" parent="1" source="uBcwT2f-iA0aWQTqLeyf-85" target="uBcwT2f-iA0aWQTqLeyf-1" edge="1">
          <mxGeometry relative="1" as="geometry">
            <mxPoint x="960" y="-290" as="sourcePoint" />
          </mxGeometry>
        </mxCell>
        <mxCell id="uBcwT2f-iA0aWQTqLeyf-51" style="edgeStyle=orthogonalEdgeStyle;shape=connector;rounded=0;orthogonalLoop=1;jettySize=auto;html=1;entryX=1;entryY=0.5;entryDx=0;entryDy=0;align=center;verticalAlign=middle;fontFamily=Helvetica;fontSize=11;fontColor=default;labelBackgroundColor=none;startFill=0;endArrow=none;" parent="1" source="uBcwT2f-iA0aWQTqLeyf-86" target="uBcwT2f-iA0aWQTqLeyf-1" edge="1">
          <mxGeometry relative="1" as="geometry">
            <mxPoint x="960" y="-250" as="sourcePoint" />
          </mxGeometry>
        </mxCell>
        <mxCell id="uBcwT2f-iA0aWQTqLeyf-52" value="&lt;h1 style=&quot;margin-top: 0px;&quot;&gt;Entities&lt;/h1&gt;&lt;div&gt;Passenger (&lt;u&gt;passengerNr&lt;/u&gt;, name, gender, title)&lt;/div&gt;&lt;div&gt;Ticket(&lt;u&gt;ticketNr&lt;/u&gt;, dateOfIssue, price, currency&lt;span style=&quot;background-color: transparent; color: light-dark(rgb(0, 0, 0), rgb(255, 255, 255));&quot;&gt;)&lt;/span&gt;&lt;/div&gt;&lt;div&gt;&lt;span style=&quot;background-color: transparent; color: light-dark(rgb(0, 0, 0), rgb(255, 255, 255));&quot;&gt;Boardingcard&lt;u&gt;(bcNr&lt;/u&gt;, seatNr)&lt;/span&gt;&lt;/div&gt;&lt;div&gt;Flight(&lt;u&gt;flightNr&lt;/u&gt;, sheduledDepature, sheduledArrivial, depature,arrivial)&lt;/div&gt;&lt;div&gt;Airport(&lt;u&gt;code&lt;/u&gt;, name, city, country, capacity)&lt;/div&gt;&lt;div&gt;Distance(km, &lt;u&gt;codeArrival, codeDepature&lt;/u&gt;)&lt;/div&gt;&lt;div&gt;Aircraft(&lt;u&gt;intNr&lt;/u&gt;, aircaraftNr, name)&lt;/div&gt;&lt;div&gt;Aircrafttype(&lt;u&gt;typeientification&lt;/u&gt;, manufactorer, range,&amp;nbsp; nrSeats)&lt;/div&gt;&lt;div&gt;Airlines(&lt;u&gt;airlineCode&lt;/u&gt;, headquarter, name)&lt;/div&gt;&lt;div&gt;&lt;br&gt;&lt;/div&gt;&lt;div&gt;&lt;br&gt;&lt;/div&gt;&lt;h1 style=&quot;margin-top: 0px;&quot;&gt;&lt;br&gt;&lt;/h1&gt;&lt;h1 style=&quot;margin-top: 0px;&quot;&gt;&amp;nbsp;Relations&lt;/h1&gt;&lt;div&gt;books(passengerID, &lt;u&gt;ticketNr&lt;/u&gt;)&lt;/div&gt;&lt;div&gt;corresponds(flightNr,&lt;u&gt; ticketNr&lt;/u&gt;)&lt;/div&gt;&lt;div&gt;arrives(&lt;u&gt;flightNr&lt;/u&gt;, code)&lt;/div&gt;&lt;div&gt;departes(&lt;u&gt;flightNr&lt;/u&gt;, code)&lt;/div&gt;&lt;p&gt;&lt;br&gt;&lt;/p&gt;" style="text;html=1;whiteSpace=wrap;overflow=hidden;rounded=0;fontFamily=Helvetica;fontSize=11;labelBackgroundColor=none;" parent="1" vertex="1">
          <mxGeometry x="-290" y="-330" width="400" height="300" as="geometry" />
        </mxCell>
        <mxCell id="uBcwT2f-iA0aWQTqLeyf-53" value="N" style="text;html=1;align=center;verticalAlign=middle;resizable=0;points=[];autosize=1;strokeColor=none;fillColor=none;fontFamily=Helvetica;fontSize=11;labelBackgroundColor=none;" parent="1" vertex="1">
          <mxGeometry x="755" y="-152" width="30" height="30" as="geometry" />
        </mxCell>
        <mxCell id="uBcwT2f-iA0aWQTqLeyf-54" value="1" style="text;html=1;align=center;verticalAlign=middle;resizable=0;points=[];autosize=1;strokeColor=none;fillColor=none;fontFamily=Helvetica;fontSize=11;labelBackgroundColor=none;" parent="1" vertex="1">
          <mxGeometry x="755" y="-232" width="30" height="30" as="geometry" />
        </mxCell>
        <mxCell id="uBcwT2f-iA0aWQTqLeyf-55" value="1" style="text;html=1;align=center;verticalAlign=middle;resizable=0;points=[];autosize=1;strokeColor=none;fillColor=none;fontFamily=Helvetica;fontSize=11;labelBackgroundColor=none;" parent="1" vertex="1">
          <mxGeometry x="755" y="28" width="30" height="30" as="geometry" />
        </mxCell>
        <mxCell id="uBcwT2f-iA0aWQTqLeyf-56" value="N" style="text;html=1;align=center;verticalAlign=middle;resizable=0;points=[];autosize=1;strokeColor=none;fillColor=none;fontFamily=Helvetica;fontSize=11;labelBackgroundColor=none;" parent="1" vertex="1">
          <mxGeometry x="755" y="-82" width="30" height="30" as="geometry" />
        </mxCell>
        <mxCell id="uBcwT2f-iA0aWQTqLeyf-63" style="edgeStyle=orthogonalEdgeStyle;shape=connector;rounded=0;orthogonalLoop=1;jettySize=auto;html=1;entryX=1;entryY=0.5;entryDx=0;entryDy=0;align=center;verticalAlign=middle;fontFamily=Helvetica;fontSize=11;fontColor=default;labelBackgroundColor=none;startFill=0;endArrow=none;" parent="1" source="uBcwT2f-iA0aWQTqLeyf-94" target="uBcwT2f-iA0aWQTqLeyf-3" edge="1">
          <mxGeometry relative="1" as="geometry">
            <mxPoint x="1160" y="90" as="sourcePoint" />
          </mxGeometry>
        </mxCell>
        <mxCell id="uBcwT2f-iA0aWQTqLeyf-66" style="edgeStyle=orthogonalEdgeStyle;shape=connector;rounded=0;orthogonalLoop=1;jettySize=auto;html=1;entryX=1;entryY=0.5;entryDx=0;entryDy=0;align=center;verticalAlign=middle;fontFamily=Helvetica;fontSize=11;fontColor=default;labelBackgroundColor=none;startFill=0;endArrow=none;" parent="1" source="uBcwT2f-iA0aWQTqLeyf-95" target="uBcwT2f-iA0aWQTqLeyf-3" edge="1">
          <mxGeometry relative="1" as="geometry">
            <mxPoint x="1160" y="133" as="sourcePoint" />
          </mxGeometry>
        </mxCell>
        <mxCell id="uBcwT2f-iA0aWQTqLeyf-68" style="edgeStyle=orthogonalEdgeStyle;shape=connector;rounded=0;orthogonalLoop=1;jettySize=auto;html=1;entryX=1;entryY=0.5;entryDx=0;entryDy=0;align=center;verticalAlign=middle;fontFamily=Helvetica;fontSize=11;fontColor=default;labelBackgroundColor=none;startFill=0;endArrow=none;" parent="1" source="uBcwT2f-iA0aWQTqLeyf-87" target="uBcwT2f-iA0aWQTqLeyf-34" edge="1">
          <mxGeometry relative="1" as="geometry">
            <mxPoint x="970" y="-190" as="sourcePoint" />
          </mxGeometry>
        </mxCell>
        <mxCell id="uBcwT2f-iA0aWQTqLeyf-70" style="edgeStyle=orthogonalEdgeStyle;shape=connector;rounded=0;orthogonalLoop=1;jettySize=auto;html=1;entryX=1;entryY=0.5;entryDx=0;entryDy=0;align=center;verticalAlign=middle;fontFamily=Helvetica;fontSize=11;fontColor=default;labelBackgroundColor=none;startFill=0;endArrow=none;" parent="1" source="uBcwT2f-iA0aWQTqLeyf-88" target="uBcwT2f-iA0aWQTqLeyf-34" edge="1">
          <mxGeometry relative="1" as="geometry">
            <mxPoint x="970" y="-150" as="sourcePoint" />
          </mxGeometry>
        </mxCell>
        <mxCell id="uBcwT2f-iA0aWQTqLeyf-72" style="edgeStyle=orthogonalEdgeStyle;shape=connector;rounded=0;orthogonalLoop=1;jettySize=auto;html=1;entryX=1;entryY=0.5;entryDx=0;entryDy=0;align=center;verticalAlign=middle;fontFamily=Helvetica;fontSize=11;fontColor=default;labelBackgroundColor=none;startFill=0;endArrow=none;" parent="1" source="uBcwT2f-iA0aWQTqLeyf-89" target="uBcwT2f-iA0aWQTqLeyf-34" edge="1">
          <mxGeometry relative="1" as="geometry">
            <mxPoint x="970" y="-110" as="sourcePoint" />
          </mxGeometry>
        </mxCell>
        <mxCell id="uBcwT2f-iA0aWQTqLeyf-74" style="edgeStyle=orthogonalEdgeStyle;shape=connector;rounded=0;orthogonalLoop=1;jettySize=auto;html=1;entryX=1;entryY=0.5;entryDx=0;entryDy=0;align=center;verticalAlign=middle;fontFamily=Helvetica;fontSize=11;fontColor=default;labelBackgroundColor=none;startFill=0;endArrow=none;" parent="1" source="uBcwT2f-iA0aWQTqLeyf-90" target="uBcwT2f-iA0aWQTqLeyf-34" edge="1">
          <mxGeometry relative="1" as="geometry">
            <mxPoint x="970" y="-67" as="sourcePoint" />
          </mxGeometry>
        </mxCell>
        <mxCell id="uBcwT2f-iA0aWQTqLeyf-76" style="edgeStyle=orthogonalEdgeStyle;shape=connector;rounded=0;orthogonalLoop=1;jettySize=auto;html=1;entryX=1;entryY=0.5;entryDx=0;entryDy=0;align=center;verticalAlign=middle;fontFamily=Helvetica;fontSize=11;fontColor=default;labelBackgroundColor=none;startFill=0;endArrow=none;" parent="1" source="uBcwT2f-iA0aWQTqLeyf-91" target="uBcwT2f-iA0aWQTqLeyf-3" edge="1">
          <mxGeometry relative="1" as="geometry">
            <mxPoint x="1160" y="-27" as="sourcePoint" />
          </mxGeometry>
        </mxCell>
        <mxCell id="uBcwT2f-iA0aWQTqLeyf-81" value="passengerNr" style="ellipse;whiteSpace=wrap;html=1;align=center;fontStyle=4;labelBackgroundColor=none;" parent="1" vertex="1">
          <mxGeometry x="960" y="-390" width="100" height="40" as="geometry" />
        </mxCell>
        <mxCell id="uBcwT2f-iA0aWQTqLeyf-83" value="name" style="ellipse;whiteSpace=wrap;html=1;align=center;labelBackgroundColor=none;" parent="1" vertex="1">
          <mxGeometry x="960" y="-350" width="100" height="40" as="geometry" />
        </mxCell>
        <mxCell id="uBcwT2f-iA0aWQTqLeyf-84" value="" style="edgeStyle=orthogonalEdgeStyle;shape=connector;rounded=0;orthogonalLoop=1;jettySize=auto;html=1;entryX=0;entryY=0.5;entryDx=0;entryDy=0;align=center;verticalAlign=middle;fontFamily=Helvetica;fontSize=11;fontColor=default;labelBackgroundColor=none;startFill=0;endArrow=none;" parent="1" target="uBcwT2f-iA0aWQTqLeyf-85" edge="1">
          <mxGeometry relative="1" as="geometry">
            <mxPoint x="960" y="-290" as="sourcePoint" />
            <mxPoint x="850" y="-260" as="targetPoint" />
          </mxGeometry>
        </mxCell>
        <mxCell id="uBcwT2f-iA0aWQTqLeyf-85" value="gender" style="ellipse;whiteSpace=wrap;html=1;align=center;labelBackgroundColor=none;" parent="1" vertex="1">
          <mxGeometry x="960" y="-310" width="100" height="40" as="geometry" />
        </mxCell>
        <mxCell id="uBcwT2f-iA0aWQTqLeyf-86" value="title" style="ellipse;whiteSpace=wrap;html=1;align=center;labelBackgroundColor=none;" parent="1" vertex="1">
          <mxGeometry x="960" y="-270" width="100" height="40" as="geometry" />
        </mxCell>
        <mxCell id="uBcwT2f-iA0aWQTqLeyf-87" value="ticketNr" style="ellipse;whiteSpace=wrap;html=1;align=center;fontStyle=4;labelBackgroundColor=none;" parent="1" vertex="1">
          <mxGeometry x="970" y="-210" width="100" height="40" as="geometry" />
        </mxCell>
        <mxCell id="uBcwT2f-iA0aWQTqLeyf-88" value="dateofIssue" style="ellipse;whiteSpace=wrap;html=1;align=center;labelBackgroundColor=none;" parent="1" vertex="1">
          <mxGeometry x="970" y="-170" width="100" height="40" as="geometry" />
        </mxCell>
        <mxCell id="uBcwT2f-iA0aWQTqLeyf-89" value="price" style="ellipse;whiteSpace=wrap;html=1;align=center;labelBackgroundColor=none;" parent="1" vertex="1">
          <mxGeometry x="970" y="-130" width="100" height="40" as="geometry" />
        </mxCell>
        <mxCell id="uBcwT2f-iA0aWQTqLeyf-90" value="currency" style="ellipse;whiteSpace=wrap;html=1;align=center;labelBackgroundColor=none;" parent="1" vertex="1">
          <mxGeometry x="970" y="-92" width="100" height="40" as="geometry" />
        </mxCell>
        <mxCell id="uBcwT2f-iA0aWQTqLeyf-91" value="flightNr" style="ellipse;whiteSpace=wrap;html=1;align=center;fontStyle=4;labelBackgroundColor=none;" parent="1" vertex="1">
          <mxGeometry x="1300" y="-21.5" width="100" height="40" as="geometry" />
        </mxCell>
        <mxCell id="uBcwT2f-iA0aWQTqLeyf-92" value="sheduledDepature" style="ellipse;whiteSpace=wrap;html=1;align=center;labelBackgroundColor=none;" parent="1" vertex="1">
          <mxGeometry x="1300" y="18.5" width="100" height="40" as="geometry" />
        </mxCell>
        <mxCell id="uBcwT2f-iA0aWQTqLeyf-93" value="sheduledArrivial" style="ellipse;whiteSpace=wrap;html=1;align=center;labelBackgroundColor=none;" parent="1" vertex="1">
          <mxGeometry x="1300" y="58.5" width="100" height="40" as="geometry" />
        </mxCell>
        <mxCell id="uBcwT2f-iA0aWQTqLeyf-94" value="depature" style="ellipse;whiteSpace=wrap;html=1;align=center;labelBackgroundColor=none;" parent="1" vertex="1">
          <mxGeometry x="1300" y="101.5" width="100" height="40" as="geometry" />
        </mxCell>
        <mxCell id="uBcwT2f-iA0aWQTqLeyf-95" value="arrivial" style="ellipse;whiteSpace=wrap;html=1;align=center;labelBackgroundColor=none;" parent="1" vertex="1">
          <mxGeometry x="1300" y="141.5" width="100" height="40" as="geometry" />
        </mxCell>
        <mxCell id="uBcwT2f-iA0aWQTqLeyf-98" style="edgeStyle=orthogonalEdgeStyle;shape=connector;rounded=0;orthogonalLoop=1;jettySize=auto;html=1;entryX=1;entryY=0.5;entryDx=0;entryDy=0;align=center;verticalAlign=middle;fontFamily=Helvetica;fontSize=11;fontColor=default;labelBackgroundColor=none;startFill=0;endArrow=none;" parent="1" source="uBcwT2f-iA0aWQTqLeyf-96" target="uBcwT2f-iA0aWQTqLeyf-4" edge="1">
          <mxGeometry relative="1" as="geometry" />
        </mxCell>
        <mxCell id="uBcwT2f-iA0aWQTqLeyf-96" value="code" style="ellipse;whiteSpace=wrap;html=1;align=center;fontStyle=4;labelBackgroundColor=none;" parent="1" vertex="1">
          <mxGeometry x="1110" y="210" width="100" height="40" as="geometry" />
        </mxCell>
        <mxCell id="uBcwT2f-iA0aWQTqLeyf-103" style="edgeStyle=orthogonalEdgeStyle;shape=connector;rounded=0;orthogonalLoop=1;jettySize=auto;html=1;entryX=1;entryY=0.5;entryDx=0;entryDy=0;align=center;verticalAlign=middle;fontFamily=Helvetica;fontSize=11;fontColor=default;labelBackgroundColor=none;startFill=0;endArrow=none;" parent="1" source="uBcwT2f-iA0aWQTqLeyf-99" target="uBcwT2f-iA0aWQTqLeyf-4" edge="1">
          <mxGeometry relative="1" as="geometry" />
        </mxCell>
        <mxCell id="uBcwT2f-iA0aWQTqLeyf-99" value="name" style="ellipse;whiteSpace=wrap;html=1;align=center;fontFamily=Helvetica;fontSize=11;labelBackgroundColor=none;" parent="1" vertex="1">
          <mxGeometry x="1110" y="250" width="100" height="40" as="geometry" />
        </mxCell>
        <mxCell id="uBcwT2f-iA0aWQTqLeyf-104" style="edgeStyle=orthogonalEdgeStyle;shape=connector;rounded=0;orthogonalLoop=1;jettySize=auto;html=1;align=center;verticalAlign=middle;fontFamily=Helvetica;fontSize=11;fontColor=default;labelBackgroundColor=none;startFill=0;endArrow=none;entryX=1;entryY=0.5;entryDx=0;entryDy=0;" parent="1" source="uBcwT2f-iA0aWQTqLeyf-100" target="uBcwT2f-iA0aWQTqLeyf-4" edge="1">
          <mxGeometry relative="1" as="geometry">
            <mxPoint x="850" y="210" as="targetPoint" />
          </mxGeometry>
        </mxCell>
        <mxCell id="uBcwT2f-iA0aWQTqLeyf-100" value="city" style="ellipse;whiteSpace=wrap;html=1;align=center;fontFamily=Helvetica;fontSize=11;labelBackgroundColor=none;" parent="1" vertex="1">
          <mxGeometry x="1110" y="290" width="100" height="40" as="geometry" />
        </mxCell>
        <mxCell id="uBcwT2f-iA0aWQTqLeyf-101" value="country" style="ellipse;whiteSpace=wrap;html=1;align=center;fontFamily=Helvetica;fontSize=11;labelBackgroundColor=none;" parent="1" vertex="1">
          <mxGeometry x="1110" y="330" width="100" height="40" as="geometry" />
        </mxCell>
        <mxCell id="uBcwT2f-iA0aWQTqLeyf-102" value="capacity" style="ellipse;whiteSpace=wrap;html=1;align=center;fontFamily=Helvetica;fontSize=11;labelBackgroundColor=none;" parent="1" vertex="1">
          <mxGeometry x="1110" y="370" width="100" height="40" as="geometry" />
        </mxCell>
        <mxCell id="uBcwT2f-iA0aWQTqLeyf-109" value="1" style="text;html=1;align=center;verticalAlign=middle;resizable=0;points=[];autosize=1;strokeColor=none;fillColor=none;fontFamily=Helvetica;fontSize=11;labelBackgroundColor=none;" parent="1" vertex="1">
          <mxGeometry x="830" y="250" width="30" height="30" as="geometry" />
        </mxCell>
        <mxCell id="uBcwT2f-iA0aWQTqLeyf-110" value="N" style="text;html=1;align=center;verticalAlign=middle;resizable=0;points=[];autosize=1;strokeColor=none;fillColor=none;fontFamily=Helvetica;fontSize=11;labelBackgroundColor=none;" parent="1" vertex="1">
          <mxGeometry x="805" y="98" width="30" height="30" as="geometry" />
        </mxCell>
        <mxCell id="uBcwT2f-iA0aWQTqLeyf-111" value="1" style="text;html=1;align=center;verticalAlign=middle;resizable=0;points=[];autosize=1;strokeColor=none;fillColor=none;fontFamily=Helvetica;fontSize=11;labelBackgroundColor=none;" parent="1" vertex="1">
          <mxGeometry x="715" y="260" width="30" height="30" as="geometry" />
        </mxCell>
        <mxCell id="uBcwT2f-iA0aWQTqLeyf-112" value="N" style="text;html=1;align=center;verticalAlign=middle;resizable=0;points=[];autosize=1;strokeColor=none;fillColor=none;fontFamily=Helvetica;fontSize=11;labelBackgroundColor=none;" parent="1" vertex="1">
          <mxGeometry x="680" y="108" width="30" height="30" as="geometry" />
        </mxCell>
        <mxCell id="xDaeHSM9muRyasw4ONxN-4" value="N" style="text;html=1;align=center;verticalAlign=middle;resizable=0;points=[];autosize=1;strokeColor=none;fillColor=none;labelBackgroundColor=none;" parent="1" vertex="1">
          <mxGeometry x="725" y="528" width="30" height="30" as="geometry" />
        </mxCell>
        <mxCell id="xDaeHSM9muRyasw4ONxN-5" value="1" style="text;html=1;align=center;verticalAlign=middle;resizable=0;points=[];autosize=1;strokeColor=none;fillColor=none;labelBackgroundColor=none;" parent="1" vertex="1">
          <mxGeometry x="725" y="320" width="30" height="30" as="geometry" />
        </mxCell>
        <mxCell id="xDaeHSM9muRyasw4ONxN-6" value="1" style="text;html=1;align=center;verticalAlign=middle;resizable=0;points=[];autosize=1;strokeColor=none;fillColor=none;labelBackgroundColor=none;" parent="1" vertex="1">
          <mxGeometry x="815" y="320" width="30" height="30" as="geometry" />
        </mxCell>
        <mxCell id="xDaeHSM9muRyasw4ONxN-7" value="N" style="text;html=1;align=center;verticalAlign=middle;resizable=0;points=[];autosize=1;strokeColor=none;fillColor=none;labelBackgroundColor=none;" parent="1" vertex="1">
          <mxGeometry x="820" y="535" width="30" height="30" as="geometry" />
        </mxCell>
        <mxCell id="xDaeHSM9muRyasw4ONxN-8" value="1" style="text;html=1;align=center;verticalAlign=middle;resizable=0;points=[];autosize=1;strokeColor=none;fillColor=none;labelBackgroundColor=none;" parent="1" vertex="1">
          <mxGeometry x="407.5" y="-188" width="30" height="30" as="geometry" />
        </mxCell>
        <mxCell id="wFdlNhTh8NdAsI9w1Szw-1" value="N" style="text;html=1;align=center;verticalAlign=middle;resizable=0;points=[];autosize=1;strokeColor=none;fillColor=none;labelBackgroundColor=none;" vertex="1" parent="1">
          <mxGeometry x="285" y="38" width="30" height="30" as="geometry" />
        </mxCell>
        <mxCell id="wFdlNhTh8NdAsI9w1Szw-2" value="1" style="text;html=1;align=center;verticalAlign=middle;resizable=0;points=[];autosize=1;strokeColor=none;fillColor=none;labelBackgroundColor=none;" vertex="1" parent="1">
          <mxGeometry x="45" y="38" width="30" height="30" as="geometry" />
        </mxCell>
        <mxCell id="wFdlNhTh8NdAsI9w1Szw-3" value="N" style="text;html=1;align=center;verticalAlign=middle;resizable=0;points=[];autosize=1;strokeColor=none;fillColor=none;labelBackgroundColor=none;" vertex="1" parent="1">
          <mxGeometry x="655" y="50" width="30" height="30" as="geometry" />
        </mxCell>
        <mxCell id="wFdlNhTh8NdAsI9w1Szw-4" value="1" style="text;html=1;align=center;verticalAlign=middle;resizable=0;points=[];autosize=1;strokeColor=none;fillColor=none;labelBackgroundColor=none;" vertex="1" parent="1">
          <mxGeometry x="445" y="48" width="30" height="30" as="geometry" />
        </mxCell>
        <mxCell id="wFdlNhTh8NdAsI9w1Szw-5" value="N" style="text;html=1;align=center;verticalAlign=middle;resizable=0;points=[];autosize=1;strokeColor=none;fillColor=none;labelBackgroundColor=none;" vertex="1" parent="1">
          <mxGeometry x="355" y="98" width="30" height="30" as="geometry" />
        </mxCell>
        <mxCell id="wFdlNhTh8NdAsI9w1Szw-6" value="1" style="text;html=1;align=center;verticalAlign=middle;resizable=0;points=[];autosize=1;strokeColor=none;fillColor=none;labelBackgroundColor=none;" vertex="1" parent="1">
          <mxGeometry x="345" y="208" width="30" height="30" as="geometry" />
        </mxCell>
        <mxCell id="wFdlNhTh8NdAsI9w1Szw-7" value="1" style="text;html=1;align=center;verticalAlign=middle;resizable=0;points=[];autosize=1;strokeColor=none;fillColor=none;labelBackgroundColor=none;" vertex="1" parent="1">
          <mxGeometry x="695" y="-165" width="30" height="30" as="geometry" />
        </mxCell>
        <mxCell id="wFdlNhTh8NdAsI9w1Szw-8" value="1" style="text;html=1;align=center;verticalAlign=middle;resizable=0;points=[];autosize=1;strokeColor=none;fillColor=none;labelBackgroundColor=none;" vertex="1" parent="1">
          <mxGeometry x="660" y="18" width="30" height="30" as="geometry" />
        </mxCell>
        <mxCell id="wFdlNhTh8NdAsI9w1Szw-9" value="N" style="text;html=1;align=center;verticalAlign=middle;resizable=0;points=[];autosize=1;strokeColor=none;fillColor=none;labelBackgroundColor=none;" vertex="1" parent="1">
          <mxGeometry x="417.5" y="-118" width="30" height="30" as="geometry" />
        </mxCell>
        <mxCell id="wFdlNhTh8NdAsI9w1Szw-10" value="(0,*)" style="text;html=1;align=center;verticalAlign=middle;resizable=0;points=[];autosize=1;strokeColor=none;fillColor=none;labelBackgroundColor=none;" vertex="1" parent="1">
          <mxGeometry x="25" y="88" width="50" height="30" as="geometry" />
        </mxCell>
        <mxCell id="wFdlNhTh8NdAsI9w1Szw-11" value="(0,1)" style="text;html=1;align=center;verticalAlign=middle;resizable=0;points=[];autosize=1;strokeColor=none;fillColor=none;labelBackgroundColor=none;" vertex="1" parent="1">
          <mxGeometry x="275" y="88" width="50" height="30" as="geometry" />
        </mxCell>
        <mxCell id="wFdlNhTh8NdAsI9w1Szw-12" value="(1,1)" style="text;html=1;align=center;verticalAlign=middle;resizable=0;points=[];autosize=1;strokeColor=none;fillColor=none;labelBackgroundColor=none;" vertex="1" parent="1">
          <mxGeometry x="395" y="108" width="50" height="30" as="geometry" />
        </mxCell>
        <mxCell id="wFdlNhTh8NdAsI9w1Szw-13" value="(0,*)" style="text;html=1;align=center;verticalAlign=middle;resizable=0;points=[];autosize=1;strokeColor=none;fillColor=none;labelBackgroundColor=none;" vertex="1" parent="1">
          <mxGeometry x="395" y="218" width="50" height="30" as="geometry" />
        </mxCell>
        <mxCell id="wFdlNhTh8NdAsI9w1Szw-14" value="(0,*)" style="text;html=1;align=center;verticalAlign=middle;resizable=0;points=[];autosize=1;strokeColor=none;fillColor=none;labelBackgroundColor=none;" vertex="1" parent="1">
          <mxGeometry x="445" y="88" width="50" height="30" as="geometry" />
        </mxCell>
        <mxCell id="wFdlNhTh8NdAsI9w1Szw-15" value="(1,1)" style="text;html=1;align=center;verticalAlign=middle;resizable=0;points=[];autosize=1;strokeColor=none;fillColor=none;labelBackgroundColor=none;" vertex="1" parent="1">
          <mxGeometry x="650" y="80" width="50" height="30" as="geometry" />
        </mxCell>
        <mxCell id="wFdlNhTh8NdAsI9w1Szw-16" value="(1,1)" style="text;html=1;align=center;verticalAlign=middle;resizable=0;points=[];autosize=1;strokeColor=none;fillColor=none;labelBackgroundColor=none;" vertex="1" parent="1">
          <mxGeometry x="710" y="106.5" width="50" height="30" as="geometry" />
        </mxCell>
        <mxCell id="wFdlNhTh8NdAsI9w1Szw-17" value="(0,*)" style="text;html=1;align=center;verticalAlign=middle;resizable=0;points=[];autosize=1;strokeColor=none;fillColor=none;labelBackgroundColor=none;" vertex="1" parent="1">
          <mxGeometry x="755" y="248" width="50" height="30" as="geometry" />
        </mxCell>
        <mxCell id="wFdlNhTh8NdAsI9w1Szw-18" value="(1,1)" style="text;html=1;align=center;verticalAlign=middle;resizable=0;points=[];autosize=1;strokeColor=none;fillColor=none;labelBackgroundColor=none;" vertex="1" parent="1">
          <mxGeometry x="855" y="88" width="50" height="30" as="geometry" />
        </mxCell>
        <mxCell id="wFdlNhTh8NdAsI9w1Szw-19" value="(0,*)" style="text;html=1;align=center;verticalAlign=middle;resizable=0;points=[];autosize=1;strokeColor=none;fillColor=none;labelBackgroundColor=none;" vertex="1" parent="1">
          <mxGeometry x="855" y="258" width="50" height="30" as="geometry" />
        </mxCell>
        <mxCell id="wFdlNhTh8NdAsI9w1Szw-20" value="(1,1)" style="text;html=1;align=center;verticalAlign=middle;resizable=0;points=[];autosize=1;strokeColor=none;fillColor=none;labelBackgroundColor=none;" vertex="1" parent="1">
          <mxGeometry x="755" y="528" width="50" height="30" as="geometry" />
        </mxCell>
        <mxCell id="wFdlNhTh8NdAsI9w1Szw-21" value="(0,*)" style="text;html=1;align=center;verticalAlign=middle;resizable=0;points=[];autosize=1;strokeColor=none;fillColor=none;labelBackgroundColor=none;" vertex="1" parent="1">
          <mxGeometry x="755" y="320" width="50" height="30" as="geometry" />
        </mxCell>
        <mxCell id="wFdlNhTh8NdAsI9w1Szw-22" value="(0,*)" style="text;html=1;align=center;verticalAlign=middle;resizable=0;points=[];autosize=1;strokeColor=none;fillColor=none;labelBackgroundColor=none;" vertex="1" parent="1">
          <mxGeometry x="855" y="318" width="50" height="30" as="geometry" />
        </mxCell>
        <mxCell id="wFdlNhTh8NdAsI9w1Szw-23" value="(1,1)" style="text;html=1;align=center;verticalAlign=middle;resizable=0;points=[];autosize=1;strokeColor=none;fillColor=none;labelBackgroundColor=none;" vertex="1" parent="1">
          <mxGeometry x="855" y="528" width="50" height="30" as="geometry" />
        </mxCell>
        <mxCell id="wFdlNhTh8NdAsI9w1Szw-24" value="" style="edgeStyle=orthogonalEdgeStyle;shape=connector;rounded=0;orthogonalLoop=1;jettySize=auto;html=1;exitX=0.5;exitY=0;exitDx=0;exitDy=0;entryX=0;entryY=0.5;entryDx=0;entryDy=0;align=center;verticalAlign=middle;fontFamily=Helvetica;fontSize=11;fontColor=default;labelBackgroundColor=none;startFill=0;endArrow=none;" edge="1" parent="1" source="uBcwT2f-iA0aWQTqLeyf-38" target="uBcwT2f-iA0aWQTqLeyf-43">
          <mxGeometry relative="1" as="geometry">
            <mxPoint x="463" y="-156" as="sourcePoint" />
            <mxPoint x="750" y="-260" as="targetPoint" />
          </mxGeometry>
        </mxCell>
        <mxCell id="uBcwT2f-iA0aWQTqLeyf-43" value="gets" style="shape=rhombus;perimeter=rhombusPerimeter;whiteSpace=wrap;html=1;align=center;fontFamily=Helvetica;fontSize=11;labelBackgroundColor=none;" parent="1" vertex="1">
          <mxGeometry x="520" y="-248" width="120" height="60" as="geometry" />
        </mxCell>
        <mxCell id="wFdlNhTh8NdAsI9w1Szw-25" value="(0,1)" style="text;html=1;align=center;verticalAlign=middle;resizable=0;points=[];autosize=1;strokeColor=none;fillColor=none;labelBackgroundColor=none;" vertex="1" parent="1">
          <mxGeometry x="635" y="-162" width="50" height="30" as="geometry" />
        </mxCell>
        <mxCell id="wFdlNhTh8NdAsI9w1Szw-26" value="(1,1)" style="text;html=1;align=center;verticalAlign=middle;resizable=0;points=[];autosize=1;strokeColor=none;fillColor=none;labelBackgroundColor=none;" vertex="1" parent="1">
          <mxGeometry x="465" y="-192" width="50" height="30" as="geometry" />
        </mxCell>
        <mxCell id="wFdlNhTh8NdAsI9w1Szw-27" value="(1,1)" style="text;html=1;align=center;verticalAlign=middle;resizable=0;points=[];autosize=1;strokeColor=none;fillColor=none;labelBackgroundColor=none;" vertex="1" parent="1">
          <mxGeometry x="465" y="-122" width="50" height="30" as="geometry" />
        </mxCell>
        <mxCell id="wFdlNhTh8NdAsI9w1Szw-28" value="(0,*)" style="text;html=1;align=center;verticalAlign=middle;resizable=0;points=[];autosize=1;strokeColor=none;fillColor=none;labelBackgroundColor=none;" vertex="1" parent="1">
          <mxGeometry x="685" y="18" width="50" height="30" as="geometry" />
        </mxCell>
        <mxCell id="wFdlNhTh8NdAsI9w1Szw-29" value="(0,*)" style="text;html=1;align=center;verticalAlign=middle;resizable=0;points=[];autosize=1;strokeColor=none;fillColor=none;labelBackgroundColor=none;" vertex="1" parent="1">
          <mxGeometry x="805" y="-242" width="50" height="30" as="geometry" />
        </mxCell>
        <mxCell id="wFdlNhTh8NdAsI9w1Szw-30" value="(1,1)" style="text;html=1;align=center;verticalAlign=middle;resizable=0;points=[];autosize=1;strokeColor=none;fillColor=none;labelBackgroundColor=none;" vertex="1" parent="1">
          <mxGeometry x="805" y="-152" width="50" height="30" as="geometry" />
        </mxCell>
        <mxCell id="wFdlNhTh8NdAsI9w1Szw-31" value="(1,1)" style="text;html=1;align=center;verticalAlign=middle;resizable=0;points=[];autosize=1;strokeColor=none;fillColor=none;labelBackgroundColor=none;" vertex="1" parent="1">
          <mxGeometry x="815" y="-82" width="50" height="30" as="geometry" />
        </mxCell>
        <mxCell id="wFdlNhTh8NdAsI9w1Szw-32" value="(0,*)" style="text;html=1;align=center;verticalAlign=middle;resizable=0;points=[];autosize=1;strokeColor=none;fillColor=none;labelBackgroundColor=none;" vertex="1" parent="1">
          <mxGeometry x="805" y="28" width="50" height="30" as="geometry" />
        </mxCell>
        <mxCell id="wFdlNhTh8NdAsI9w1Szw-35" style="edgeStyle=orthogonalEdgeStyle;shape=connector;rounded=0;orthogonalLoop=1;jettySize=auto;html=1;entryX=1;entryY=0.5;entryDx=0;entryDy=0;strokeColor=default;align=center;verticalAlign=middle;fontFamily=Helvetica;fontSize=11;fontColor=default;labelBackgroundColor=none;startFill=0;endArrow=none;" edge="1" parent="1" source="wFdlNhTh8NdAsI9w1Szw-33" target="uBcwT2f-iA0aWQTqLeyf-8">
          <mxGeometry relative="1" as="geometry" />
        </mxCell>
        <mxCell id="wFdlNhTh8NdAsI9w1Szw-33" value="distanceID" style="ellipse;whiteSpace=wrap;html=1;align=center;fontFamily=Helvetica;fontSize=11;labelBackgroundColor=none;" vertex="1" parent="1">
          <mxGeometry x="1000" y="545" width="100" height="40" as="geometry" />
        </mxCell>
        <mxCell id="wFdlNhTh8NdAsI9w1Szw-37" style="edgeStyle=orthogonalEdgeStyle;shape=connector;rounded=0;orthogonalLoop=1;jettySize=auto;html=1;entryX=1;entryY=0.5;entryDx=0;entryDy=0;strokeColor=default;align=center;verticalAlign=middle;fontFamily=Helvetica;fontSize=11;fontColor=default;labelBackgroundColor=none;startFill=0;endArrow=none;" edge="1" parent="1" source="wFdlNhTh8NdAsI9w1Szw-36" target="uBcwT2f-iA0aWQTqLeyf-8">
          <mxGeometry relative="1" as="geometry" />
        </mxCell>
        <mxCell id="wFdlNhTh8NdAsI9w1Szw-36" value="km" style="ellipse;whiteSpace=wrap;html=1;align=center;fontFamily=Helvetica;fontSize=11;labelBackgroundColor=none;" vertex="1" parent="1">
          <mxGeometry x="1000" y="585" width="100" height="40" as="geometry" />
        </mxCell>
        <mxCell id="wFdlNhTh8NdAsI9w1Szw-45" style="edgeStyle=orthogonalEdgeStyle;shape=connector;rounded=0;orthogonalLoop=1;jettySize=auto;html=1;entryX=0;entryY=0.5;entryDx=0;entryDy=0;strokeColor=default;align=center;verticalAlign=middle;fontFamily=Helvetica;fontSize=11;fontColor=default;labelBackgroundColor=none;startFill=0;endArrow=none;" edge="1" parent="1" source="wFdlNhTh8NdAsI9w1Szw-40" target="uBcwT2f-iA0aWQTqLeyf-5">
          <mxGeometry relative="1" as="geometry" />
        </mxCell>
        <mxCell id="wFdlNhTh8NdAsI9w1Szw-40" value="name" style="ellipse;whiteSpace=wrap;html=1;align=center;labelBackgroundColor=none;" vertex="1" parent="1">
          <mxGeometry x="-230" y="23" width="100" height="40" as="geometry" />
        </mxCell>
        <mxCell id="wFdlNhTh8NdAsI9w1Szw-44" style="edgeStyle=orthogonalEdgeStyle;shape=connector;rounded=0;orthogonalLoop=1;jettySize=auto;html=1;strokeColor=default;align=center;verticalAlign=middle;fontFamily=Helvetica;fontSize=11;fontColor=default;labelBackgroundColor=none;startFill=0;endArrow=none;" edge="1" parent="1" source="wFdlNhTh8NdAsI9w1Szw-41">
          <mxGeometry relative="1" as="geometry">
            <mxPoint x="-70" y="80" as="targetPoint" />
          </mxGeometry>
        </mxCell>
        <mxCell id="wFdlNhTh8NdAsI9w1Szw-41" value="headquarter" style="ellipse;whiteSpace=wrap;html=1;align=center;labelBackgroundColor=none;" vertex="1" parent="1">
          <mxGeometry x="-230" y="70" width="100" height="40" as="geometry" />
        </mxCell>
        <mxCell id="wFdlNhTh8NdAsI9w1Szw-43" style="edgeStyle=orthogonalEdgeStyle;shape=connector;rounded=0;orthogonalLoop=1;jettySize=auto;html=1;entryX=0;entryY=0.5;entryDx=0;entryDy=0;strokeColor=default;align=center;verticalAlign=middle;fontFamily=Helvetica;fontSize=11;fontColor=default;labelBackgroundColor=none;startFill=0;endArrow=none;" edge="1" parent="1" source="wFdlNhTh8NdAsI9w1Szw-42" target="uBcwT2f-iA0aWQTqLeyf-5">
          <mxGeometry relative="1" as="geometry" />
        </mxCell>
        <mxCell id="wFdlNhTh8NdAsI9w1Szw-42" value="arilincode" style="ellipse;whiteSpace=wrap;html=1;align=center;fontStyle=4;fontFamily=Helvetica;fontSize=11;fontColor=default;labelBackgroundColor=none;" vertex="1" parent="1">
          <mxGeometry x="-230" y="118" width="100" height="40" as="geometry" />
        </mxCell>
        <mxCell id="wFdlNhTh8NdAsI9w1Szw-51" style="edgeStyle=orthogonalEdgeStyle;shape=connector;rounded=0;orthogonalLoop=1;jettySize=auto;html=1;entryX=0.5;entryY=0;entryDx=0;entryDy=0;strokeColor=default;align=center;verticalAlign=middle;fontFamily=Helvetica;fontSize=11;fontColor=default;labelBackgroundColor=none;startFill=0;endArrow=none;exitX=0.5;exitY=1;exitDx=0;exitDy=0;" edge="1" parent="1" source="wFdlNhTh8NdAsI9w1Szw-47" target="uBcwT2f-iA0aWQTqLeyf-6">
          <mxGeometry relative="1" as="geometry">
            <Array as="points">
              <mxPoint x="275" y="30" />
              <mxPoint x="390" y="30" />
            </Array>
          </mxGeometry>
        </mxCell>
        <mxCell id="wFdlNhTh8NdAsI9w1Szw-52" style="edgeStyle=orthogonalEdgeStyle;shape=connector;rounded=0;orthogonalLoop=1;jettySize=auto;html=1;entryX=0.5;entryY=0;entryDx=0;entryDy=0;strokeColor=default;align=center;verticalAlign=middle;fontFamily=Helvetica;fontSize=11;fontColor=default;labelBackgroundColor=none;startFill=0;endArrow=none;exitX=0.5;exitY=1;exitDx=0;exitDy=0;" edge="1" parent="1" source="wFdlNhTh8NdAsI9w1Szw-46" target="uBcwT2f-iA0aWQTqLeyf-6">
          <mxGeometry relative="1" as="geometry" />
        </mxCell>
        <mxCell id="wFdlNhTh8NdAsI9w1Szw-46" value="intNr" style="ellipse;whiteSpace=wrap;html=1;align=center;fontStyle=4;fontFamily=Helvetica;fontSize=11;fontColor=default;labelBackgroundColor=none;" vertex="1" parent="1">
          <mxGeometry x="120" y="-40" width="100" height="40" as="geometry" />
        </mxCell>
        <mxCell id="wFdlNhTh8NdAsI9w1Szw-47" value="aircraftNr" style="ellipse;whiteSpace=wrap;html=1;align=center;labelBackgroundColor=none;" vertex="1" parent="1">
          <mxGeometry x="225" y="-40" width="100" height="40" as="geometry" />
        </mxCell>
        <mxCell id="wFdlNhTh8NdAsI9w1Szw-49" style="edgeStyle=orthogonalEdgeStyle;shape=connector;rounded=0;orthogonalLoop=1;jettySize=auto;html=1;entryX=0.5;entryY=0;entryDx=0;entryDy=0;strokeColor=default;align=center;verticalAlign=middle;fontFamily=Helvetica;fontSize=11;fontColor=default;labelBackgroundColor=none;startFill=0;endArrow=none;" edge="1" parent="1" source="wFdlNhTh8NdAsI9w1Szw-48" target="uBcwT2f-iA0aWQTqLeyf-6">
          <mxGeometry relative="1" as="geometry" />
        </mxCell>
        <mxCell id="wFdlNhTh8NdAsI9w1Szw-48" value="name" style="ellipse;whiteSpace=wrap;html=1;align=center;labelBackgroundColor=none;" vertex="1" parent="1">
          <mxGeometry x="325" y="-40" width="100" height="40" as="geometry" />
        </mxCell>
        <mxCell id="wFdlNhTh8NdAsI9w1Szw-54" style="edgeStyle=orthogonalEdgeStyle;shape=connector;rounded=0;orthogonalLoop=1;jettySize=auto;html=1;entryX=0.5;entryY=1;entryDx=0;entryDy=0;strokeColor=default;align=center;verticalAlign=middle;fontFamily=Helvetica;fontSize=11;fontColor=default;labelBackgroundColor=none;startFill=0;endArrow=none;exitX=0.5;exitY=0;exitDx=0;exitDy=0;" edge="1" parent="1" source="wFdlNhTh8NdAsI9w1Szw-53" target="uBcwT2f-iA0aWQTqLeyf-7">
          <mxGeometry relative="1" as="geometry" />
        </mxCell>
        <mxCell id="wFdlNhTh8NdAsI9w1Szw-53" value="typeidentifacation" style="ellipse;whiteSpace=wrap;html=1;align=center;fontStyle=4;fontFamily=Helvetica;fontSize=11;fontColor=default;labelBackgroundColor=none;" vertex="1" parent="1">
          <mxGeometry x="110" y="330" width="100" height="40" as="geometry" />
        </mxCell>
        <mxCell id="wFdlNhTh8NdAsI9w1Szw-56" style="edgeStyle=orthogonalEdgeStyle;shape=connector;rounded=0;orthogonalLoop=1;jettySize=auto;html=1;entryX=0.5;entryY=1;entryDx=0;entryDy=0;strokeColor=default;align=center;verticalAlign=middle;fontFamily=Helvetica;fontSize=11;fontColor=default;labelBackgroundColor=none;startFill=0;endArrow=none;exitX=0.5;exitY=0;exitDx=0;exitDy=0;" edge="1" parent="1" source="wFdlNhTh8NdAsI9w1Szw-55" target="uBcwT2f-iA0aWQTqLeyf-7">
          <mxGeometry relative="1" as="geometry" />
        </mxCell>
        <mxCell id="wFdlNhTh8NdAsI9w1Szw-55" value="manufactorer" style="ellipse;whiteSpace=wrap;html=1;align=center;labelBackgroundColor=none;" vertex="1" parent="1">
          <mxGeometry x="210" y="330" width="100" height="40" as="geometry" />
        </mxCell>
        <mxCell id="wFdlNhTh8NdAsI9w1Szw-58" style="edgeStyle=orthogonalEdgeStyle;shape=connector;rounded=0;orthogonalLoop=1;jettySize=auto;html=1;entryX=0.5;entryY=1;entryDx=0;entryDy=0;strokeColor=default;align=center;verticalAlign=middle;fontFamily=Helvetica;fontSize=11;fontColor=default;labelBackgroundColor=none;startFill=0;endArrow=none;" edge="1" parent="1" source="wFdlNhTh8NdAsI9w1Szw-57" target="uBcwT2f-iA0aWQTqLeyf-7">
          <mxGeometry relative="1" as="geometry" />
        </mxCell>
        <mxCell id="wFdlNhTh8NdAsI9w1Szw-57" value="range" style="ellipse;whiteSpace=wrap;html=1;align=center;labelBackgroundColor=none;" vertex="1" parent="1">
          <mxGeometry x="314" y="330" width="100" height="40" as="geometry" />
        </mxCell>
        <mxCell id="wFdlNhTh8NdAsI9w1Szw-68" style="edgeStyle=orthogonalEdgeStyle;shape=connector;rounded=0;orthogonalLoop=1;jettySize=auto;html=1;entryX=0;entryY=0.5;entryDx=0;entryDy=0;strokeColor=default;align=center;verticalAlign=middle;fontFamily=Helvetica;fontSize=11;fontColor=default;labelBackgroundColor=none;startFill=0;endArrow=none;" edge="1" parent="1" source="wFdlNhTh8NdAsI9w1Szw-59" target="uBcwT2f-iA0aWQTqLeyf-38">
          <mxGeometry relative="1" as="geometry" />
        </mxCell>
        <mxCell id="wFdlNhTh8NdAsI9w1Szw-59" value="bcNr" style="ellipse;whiteSpace=wrap;html=1;align=center;fontStyle=4;labelBackgroundColor=none;" vertex="1" parent="1">
          <mxGeometry x="255" y="-250" width="100" height="40" as="geometry" />
        </mxCell>
        <mxCell id="wFdlNhTh8NdAsI9w1Szw-62" style="edgeStyle=orthogonalEdgeStyle;shape=connector;rounded=0;orthogonalLoop=1;jettySize=auto;html=1;entryX=1;entryY=0.5;entryDx=0;entryDy=0;strokeColor=default;align=center;verticalAlign=middle;fontFamily=Helvetica;fontSize=11;fontColor=default;labelBackgroundColor=none;startFill=0;endArrow=none;" edge="1" parent="1" source="wFdlNhTh8NdAsI9w1Szw-61" target="uBcwT2f-iA0aWQTqLeyf-3">
          <mxGeometry relative="1" as="geometry" />
        </mxCell>
        <mxCell id="wFdlNhTh8NdAsI9w1Szw-61" value="date" style="ellipse;whiteSpace=wrap;html=1;align=center;labelBackgroundColor=none;" vertex="1" parent="1">
          <mxGeometry x="1300" y="-70" width="100" height="40" as="geometry" />
        </mxCell>
        <mxCell id="wFdlNhTh8NdAsI9w1Szw-64" style="edgeStyle=orthogonalEdgeStyle;shape=connector;rounded=0;orthogonalLoop=1;jettySize=auto;html=1;entryX=1;entryY=0.5;entryDx=0;entryDy=0;strokeColor=default;align=center;verticalAlign=middle;fontFamily=Helvetica;fontSize=11;fontColor=default;labelBackgroundColor=none;startFill=0;endArrow=none;" edge="1" parent="1" source="wFdlNhTh8NdAsI9w1Szw-63" target="uBcwT2f-iA0aWQTqLeyf-3">
          <mxGeometry relative="1" as="geometry" />
        </mxCell>
        <mxCell id="wFdlNhTh8NdAsI9w1Szw-63" value="frequncy" style="ellipse;whiteSpace=wrap;html=1;align=center;labelBackgroundColor=none;" vertex="1" parent="1">
          <mxGeometry x="1300" y="-116" width="100" height="40" as="geometry" />
        </mxCell>
        <mxCell id="wFdlNhTh8NdAsI9w1Szw-67" style="edgeStyle=orthogonalEdgeStyle;shape=connector;rounded=0;orthogonalLoop=1;jettySize=auto;html=1;entryX=0;entryY=0.5;entryDx=0;entryDy=0;strokeColor=default;align=center;verticalAlign=middle;fontFamily=Helvetica;fontSize=11;fontColor=default;labelBackgroundColor=none;startFill=0;endArrow=none;" edge="1" parent="1" source="wFdlNhTh8NdAsI9w1Szw-66" target="uBcwT2f-iA0aWQTqLeyf-38">
          <mxGeometry relative="1" as="geometry" />
        </mxCell>
        <mxCell id="wFdlNhTh8NdAsI9w1Szw-66" value="seatNr" style="ellipse;whiteSpace=wrap;html=1;align=center;labelBackgroundColor=none;" vertex="1" parent="1">
          <mxGeometry x="255" y="-210" width="100" height="40" as="geometry" />
        </mxCell>
        <mxCell id="wFdlNhTh8NdAsI9w1Szw-71" style="edgeStyle=orthogonalEdgeStyle;shape=connector;rounded=0;orthogonalLoop=1;jettySize=auto;html=1;entryX=0.5;entryY=1;entryDx=0;entryDy=0;strokeColor=default;align=center;verticalAlign=middle;fontFamily=Helvetica;fontSize=11;fontColor=default;labelBackgroundColor=none;startFill=0;endArrow=none;" edge="1" parent="1" source="wFdlNhTh8NdAsI9w1Szw-70" target="uBcwT2f-iA0aWQTqLeyf-7">
          <mxGeometry relative="1" as="geometry" />
        </mxCell>
        <mxCell id="wFdlNhTh8NdAsI9w1Szw-70" value="nrSeats" style="ellipse;whiteSpace=wrap;html=1;align=center;labelBackgroundColor=none;" vertex="1" parent="1">
          <mxGeometry x="420" y="330" width="100" height="40" as="geometry" />
        </mxCell>
      </root>
    </mxGraphModel>
  </diagram>
</mxfile>
